<?xml version="1.0" standalone="no"?><!DOCTYPE svg PUBLIC "-//W3C//DTD SVG 1.1//EN" "http://www.w3.org/Graphics/SVG/1.1/DTD/svg11.dtd"><svg t="1541647049856" class="icon" style="" viewBox="0 0 1024 1024" version="1.1" xmlns="http://www.w3.org/2000/svg" p-id="11453" xmlns:xlink="http://www.w3.org/1999/xlink" width="265" height="265"><defs><style type="text/css"></style></defs><path d="M807.260799 603.899947H643.593128l-54.358938 54.358938h178.32095l88.983218 278.530471H149.990337l98.909633-278.530471h165.79476l-54.358938-54.358938H210.494198L73.060623 991.148294h857.925846z" p-id="11454"></path><path d="M473.071503 1.106594C638.748092-12.719483 776.890697 104.743091 776.890697 256.593603c0 193.446916-172.648714 234.806977-255.60518 421.281768-6.853953 13.826078-27.652155 13.826078-34.506108 0C410.913239 512.198782 258.944556 463.866596 231.292401 311.897913 203.640245 159.92923 314.130695 14.932672 473.071503 1.106594z m27.652155 448.933925c117.462575 0 207.154822-82.838295 207.154822-193.446916 0-110.49045-89.810419-186.474791-207.154822-186.474792C383.261084 70.118811 293.450664 153.075277 293.450664 263.565727s89.810419 186.474791 207.272994 186.474792z m0 0" p-id="11455"></path></svg>