<?xml version="1.0" standalone="no"?><!DOCTYPE svg PUBLIC "-//W3C//DTD SVG 1.1//EN" "http://www.w3.org/Graphics/SVG/1.1/DTD/svg11.dtd"><svg t="1539255576929" class="icon" style="" viewBox="0 0 1024 1024" version="1.1" xmlns="http://www.w3.org/2000/svg" p-id="592" xmlns:xlink="http://www.w3.org/1999/xlink" width="200" height="200"><defs><style type="text/css"></style></defs><path d="M186.1888 387.84v612.4288H108.544A108.6976 108.6976 0 0 1 0 891.7248V503.808c0-61.7728 50.8416-115.9936 108.544-115.9936h77.6448z m93.0816-7.424c106.0864-26.3168 180.1984-120.1408 180.1984-238.592V113.1776c0-57.6 52.1728-108.1088 111.6672-108.1088 48.5376 0 90.5472 30.2592 105.0624 73.5232l7.1168 20.1472c21.76 64.256 24.6784 133.4272 8.32 199.2704l-3.8144 15.744c-1.28 10.496-6.2976 29.7472-15.3088 48.512h240.0512c33.6128 0 64.8192 15.8208 85.504 43.264a111.488 111.488 0 0 1 18.4064 97.28l-119.424 416.3328a108.928 108.928 0 0 1-104.6272 81.1008H279.296V380.4416z" fill="#FFA033" p-id="593"></path></svg>