<?xml version="1.0" standalone="no"?><!DOCTYPE svg PUBLIC "-//W3C//DTD SVG 1.1//EN" "http://www.w3.org/Graphics/SVG/1.1/DTD/svg11.dtd"><svg t="1541643236838" class="icon" style="" viewBox="0 0 1024 1024" version="1.1" xmlns="http://www.w3.org/2000/svg" p-id="2324" xmlns:xlink="http://www.w3.org/1999/xlink" width="265" height="265"><defs><style type="text/css"></style></defs><path d="M582.747369 940.411591C611.336374 935.475906 632.672459 923.264371 652.26079 901.907597 686.831791 864.215914 716.802316 796.020484 751.167268 705.226027 825.455458 508.906603 900.688967 278.98023 930.58082 186.099076L422.887622 85.020982 244.122184 575.432427C236.639544 595.963485 213.928129 606.539333 193.390827 599.056692 172.854773 591.574052 162.278925 568.856393 169.761566 548.325335L360.150572 26.031497C366.838994 7.68454 385.911486-3.037414 405.057658 0.772588L989.477895 117.128156C1000.503302 119.323497 1010.073891 126.104329 1015.800757 135.777315 1021.526377 145.450301 1022.873803 157.098845 1019.497123 167.820802 1018.526826 170.907765 921.166329 479.609165 825.186972 733.240974 786.50876 835.42548 753.850878 908.230129 710.592172 955.399988 669.907419 999.755939 621.109563 1020.82755 554.739953 1022.059407 553.95133 1022.229621 553.151448 1022.387097 552.340309 1022.531465 504.11149 1026.863455 447.452213 999.658959 447.452213 999.658959L117.826393 850.02612C117.826393 850.02612-38.031575 801.221617 8.768647 598.437301L459.008349 780.353392C459.008349 780.353392 441.657913 960.082883 582.636763 940.298589 582.673708 940.336206 582.710576 940.373874 582.747369 940.411591ZM761.103747 382.228686C757.645895 382.228686 754.1331 381.775381 750.63654 380.818823L577.837733 333.536574C556.754718 327.770994 544.344423 306.0049 550.111252 284.921885 555.881827 263.843864 577.641677 251.429824 598.724692 257.200398L771.528494 304.482647C792.611509 310.248227 805.020555 332.014321 799.254975 353.092342 794.44096 370.677546 778.499138 382.228686 761.103747 382.228686ZM691.026415 553.964788C686.934191 553.964788 682.778276 553.325417 678.681056 551.984237L506.496645 495.486051C485.725824 488.671503 474.418194 466.310993 481.232743 445.550161 488.047289 424.784335 510.404053 413.472958 531.169879 420.287507L703.358037 476.784444C724.123866 483.59899 735.436488 505.954507 728.62194 526.720332 723.148573 543.38894 707.661304 553.964788 691.026415 553.964788ZM626.315057 713.680213C622.222831 713.680213 618.066919 713.045837 613.96845 711.699659L441.799024 655.202724C421.033196 648.388176 409.726817 626.027666 416.541363 605.266834 423.355911 584.501008 445.711425 573.188383 466.482249 580.002932L638.64668 636.499867C659.412506 643.314415 670.720135 665.676173 663.909334 686.437005 658.437216 703.104363 642.953694 713.680213 626.315057 713.680213ZM471.994327 299.087952C469.281994 299.087952 466.53095 298.804482 463.769916 298.220057L461.809345 297.81046C460.389491 297.507007 458.969637 297.209801 457.584748 296.912594 436.218262 292.307122 422.637868 271.249083 427.24334 249.888839 431.852556 228.522352 452.911844 214.946953 474.267092 219.547429 475.520859 219.815915 476.803347 220.088149 478.087085 220.356635L480.145062 220.791205C501.525284 225.313009 515.194341 246.312356 510.676284 267.69258 506.73516 286.313016 490.296328 299.087952 471.994327 299.087952ZM410.198851 462.994256C407.487768 462.994256 404.735475 462.715779 401.97569 462.130106L400.057576 461.725504C398.61899 461.4233 397.180404 461.121097 395.780533 460.818895 374.419041 456.20843 360.838646 435.150389 365.449111 413.790147 370.063323 392.428655 391.116369 378.848261 412.482855 383.462473 413.745365 383.730959 415.042837 384.004441 416.340312 384.27792L418.350834 384.702504C439.731058 389.224306 453.40386 410.21866 448.882058 431.603877 444.940934 450.223065 428.5021 462.994256 410.198851 462.994256ZM347.283228 614.944815C344.565899 614.944815 341.804866 614.661345 339.038837 614.075672L336.940899 613.637352C335.566001 613.34389 334.19485 613.056672 332.853668 612.768206 311.493427 608.149001 297.916778 587.085964 302.537234 565.725722 307.156441 544.36423 328.209485 530.793827 349.580968 535.413033 350.771048 535.67153 351.994844 535.925029 353.219888 536.183526L355.453941 536.651815C376.834165 541.188604 390.486987 562.192947 385.955194 583.573171 382.014069 602.183616 365.580234 614.944815 347.283228 614.944815Z" p-id="2325"></path></svg>