<?xml version="1.0" standalone="no"?><!DOCTYPE svg PUBLIC "-//W3C//DTD SVG 1.1//EN" "http://www.w3.org/Graphics/SVG/1.1/DTD/svg11.dtd"><svg t="1541644445351" class="icon" style="" viewBox="0 0 1366 1024" version="1.1" xmlns="http://www.w3.org/2000/svg" p-id="9650" xmlns:xlink="http://www.w3.org/1999/xlink" width="353.505859375" height="265"><defs><style type="text/css"></style></defs><path d="M56.888889 56.513308 56.888889 56.513308 56.888889 967.486692C56.888889 967.180402 56.819086 967.111111 56.928427 967.111111L1308.404907 967.111111C1308.535467 967.111111 1308.444444 967.201508 1308.444444 967.486692L1308.444444 56.513308C1308.444444 56.819598 1308.514247 56.888889 1308.404907 56.888889L56.928427 56.888889C56.797867 56.888889 56.888889 56.798492 56.888889 56.513308L56.888889 56.513308 56.888889 56.513308 56.888889 56.513308ZM0 56.513308C0 25.301845 25.456014 0 56.928427 0L1308.404907 0C1339.845632 0 1365.333333 25.312484 1365.333333 56.513308L1365.333333 967.486692C1365.333333 998.698155 1339.877319 1024 1308.404907 1024L56.928427 1024C25.487701 1024 0 998.687516 0 967.486692L0 56.513308 0 56.513308 0 56.513308ZM56.888889 170.666667 1365.333333 170.666667 1365.333333 227.555556 56.888889 227.555556 56.888889 170.666667 56.888889 170.666667ZM227.555556 441.397874 385.997084 869.910187 446.612992 869.910187 605.054521 441.397874 551.040398 441.397874 417.205305 816.496185 415.404828 816.496185 281.569735 441.397874 227.555556 441.397874 227.555556 441.397874ZM654.86757 441.397874 654.86757 869.910187 703.48032 869.910187 703.48032 441.397874 654.86757 441.397874 654.86757 441.397874ZM793.503972 441.397874 793.503972 869.910187 842.716843 869.910187 842.716843 694.664249 968.149732 694.664249C1066.575531 694.664249 1116.388636 652.053106 1116.388636 567.430884 1116.388636 483.408896 1067.175708 441.397874 968.749909 441.397874L793.503972 441.397874 793.503972 441.397874ZM842.716843 484.009017 965.749134 484.009017C999.958073 484.009017 1025.164686 490.610745 1041.969095 505.014556 1058.773504 517.617835 1067.175708 538.623374 1067.175708 567.430884 1067.175708 596.23845 1058.773504 617.243989 1042.569273 631.047566 1025.764864 644.8512 1000.558251 652.053106 965.749134 652.053106L842.716843 652.053106 842.716843 484.009017 842.716843 484.009017Z" p-id="9651"></path></svg>