<?xml version="1.0" standalone="no"?><!DOCTYPE svg PUBLIC "-//W3C//DTD SVG 1.1//EN" "http://www.w3.org/Graphics/SVG/1.1/DTD/svg11.dtd"><svg t="1541646482490" class="icon" style="" viewBox="0 0 1219 1024" version="1.1" xmlns="http://www.w3.org/2000/svg" p-id="19849" xmlns:xlink="http://www.w3.org/1999/xlink" width="315.4638671875" height="265"><defs><style type="text/css"></style></defs><path d="M259.900952 73.142857a24.380952 24.380952 0 0 0-20.284952 10.873905L74.020571 332.409905a24.380952 24.380952 0 0 0 1.657905 29.257143l491.812572 581.241904a24.380952 24.380952 0 0 0 36.571428 0.780191L1138.834286 364.30019a24.380952 24.380952 0 0 0 0.78019-32.182857L931.157333 81.92a24.380952 24.380952 0 0 0-18.724571-8.777143H259.900952z m0-48.761905h652.53181a73.142857 73.142857 0 0 1 56.173714 26.331429l208.554667 250.197333a73.142857 73.142857 0 0 1-2.438095 96.451048L639.804952 976.749714a73.142857 73.142857 0 0 1-109.568-2.340571L38.473143 393.167238a73.142857 73.142857 0 0 1-5.022476-87.82019l165.595428-248.393143A73.142857 73.142857 0 0 1 259.900952 24.380952z" p-id="19850"></path><path d="M62.464 361.959619h1107.577905v-48.761905H62.464z" p-id="19851"></path><path d="M307.44381 365.714286l-29.744762-45.884953 316.952381-289.450666a21.406476 21.406476 0 0 1 29.744761 0l316.952381 289.450666-29.744761 45.884953L609.52381 89.819429 307.44381 365.714286z" p-id="19852"></path><path d="M586.800762 920.673524l-272.091429-589.531429a24.380952 24.380952 0 0 0-44.275809 20.431238l292.571428 633.904762 43.593143 1.316572 341.333334-633.904762a24.380952 24.380952 0 1 0-42.910477-23.113143l-318.22019 590.896762z" p-id="19853"></path></svg>