<?xml version="1.0" standalone="no"?><!DOCTYPE svg PUBLIC "-//W3C//DTD SVG 1.1//EN" "http://www.w3.org/Graphics/SVG/1.1/DTD/svg11.dtd"><svg t="1539257412081" class="icon" style="" viewBox="0 0 1049 1024" version="1.1" xmlns="http://www.w3.org/2000/svg" p-id="21802" xmlns:xlink="http://www.w3.org/1999/xlink" width="204.8828125" height="200"><defs><style type="text/css"></style></defs><path d="M965.618115 351.745736c19.494183 50.08922 32.88602 93.420041 32.886021 93.42004v61.029243l-12.564538 53.848515s-10.768777-16.156059-10.768778-33.147516-12.565695-15.317189-12.565695-36.8559c0-21.539869-16.153745-14.360298-26.923679-28.71944-10.769934-14.359141-16.154902 5.384967-25.130232 7.180728-8.975331 1.794603-7.180728 16.154902-16.154902 33.206526-8.975331 17.051625-32.309803 27.821559-39.490531 24.630382-1.231114-0.548447-3.05233-1.721708-5.219508-3.301098-49.054807 67.396556-96.210875 125.948529-140.640904 176.701903 14.966599-3.81252 39.813351-9.295837 50.73139-6.869478l16.154902 3.589206v-7.180727c-0.002314 0.002314 14.356827 37.695928-0.002314 75.391855-14.360298 37.693614-48.464705 102.312063-66.415367 120.262726-17.949505 17.949505-39.489374 52.053912-55.643119 64.618449-16.156059 12.564538-16.156059 35.89901-35.89901 34.104407-19.745266-1.793446-43.079738-57.438879-37.693614-71.79802 2.996791-7.992985-27.91991-19.31831-55.93007-27.79379-72.415892 61.789433-126.47962 95.322251-154.08828 110.640597 51.76696 18.411173 107.507272 28.440588 165.591792 28.440587 272.864181 0 494.065537-221.201356 494.065537-494.065537 0-74.07859-16.308791-144.345817-45.522296-207.416117a3513.379869 3513.379869 0 0 1-18.776805 30.082459M893.742572 232.083525c-33.601085 49.758301-76.493379 104.885369-126.238952 162.423756a210.726472 210.726472 0 0 0-2.601075-6.89609c-7.180728-17.949505 0-88.666829 0-88.666829-10.768777-6.098875 98.724014-51.342319 84.364872-56.727286-14.360298-5.38381-21.541026-64.617293-21.541026-64.617293l52.254084 26.923679c6.53393 3.367051 13.283073 9.659155 20.092384 18.08141a1117.556574 1117.556574 0 0 1-6.330287 9.47981m-150.001537-14.997839c-10.391575 3.590364 3.212005 23.334472-0.377202 26.924836-3.589207 3.589207 1.794603 35.89901 0 54.930368-1.794603 19.030201-8.974174 2.507354-17.949505 0-8.974174-2.508511-23.334472-8.262581-24.562116-13.646391-1.229957-5.384967-4.157324-21.539869-0.56696-30.5152 3.589207-8.975331-10.769934-17.949505-17.950662-24.532031-7.179571-6.583684-35.89901 1.197559-41.283978 0s-8.974174-16.751946-8.974174-31.113401c0-14.359141 25.129076 1.796918 39.273004 0 14.143928-1.793446 16.371272-37.581379 16.371272-37.581379l-0.813415-30.419164c-5.80151-2.318753-6.750301-5.328271 2.608019-9.181288 0 0-30.5152-7.180728-37.693614 8.975331-7.180728 16.154902-10.769934 14.585925-12.564538 30.626278-1.79576 16.042667-29.918156 1.909153-36.498368 0-6.581369-1.906838-24.532032-23.447864-24.532032-23.447864 5.384967-12.565695 8.974174-21.538712 8.974174-21.538712l-9.406915-21.538712V69.901595s30.947941-17.950662 41.716719-7.180727c10.769934 10.768777 48.464705-1.794603 145.391801 55.643118 0 0-21.347797 22.766355-26.015386 21.401022 2.726038 4.948755 11.102011 20.038002 17.041212 29.363923 7.180728 11.275571 8.974174 12.058902 8.974174 12.058902l-7.180728 10.769934 7.180728 1.793447c-7.180728-1.793446-10.768777 19.745266-21.16151 23.335629m-258.852158 53.849672c-7.181885 14.361455-21.541026 19.745266-25.13139 26.924836-3.589207 7.181885-33.107019-23.333315-36.298197-34.103249-3.191177-10.769934-18.961934-21.541026-32.616424-17.950662-13.65449 3.590364-49.553501 12.565695-56.733072 8.975331-7.179571-3.590364-47.897745-6.728316-39.488217-17.949505 3.045388-4.063602 23.334472-39.490531 48.464705-28.71944 25.130233 10.768777 41.283977-12.565695 41.283978-12.565695s36.896398-37.693614 39.090187-32.308646l2.19379 5.384967c-2.19379-5.384967 30.5152-14.359141 34.10325 3.590364 3.590364 17.949505 25.13139 26.980375 25.13139 26.980375s-12.565695 21.48433-8.975331 37.638075c3.590364 16.154902 16.154902 19.744108 8.975331 34.104406M423.461605 450.432723c-15.755715 3.591521-62.42466 58.234938-58.834297 75.787571 3.590364 17.551476 3.590364 44.476312-3.590363 60.630056-7.180728 16.156059-12.564538 21.541026-39.489374 19.744109-26.924836-1.793446-49.686563-16.154902-57.153085 5.386124-7.466522 21.539869-21.750454 70.063584 3.304569 65.164583 0 0 39.488217-12.019562 53.848516 0 13.291173 11.125153 92.69572 45.778007 104.442214 50.874866a2480.035435 2480.035435 0 0 1-15.959358 13.080587c-21.824506-8.393329-59.47068-20.29487-84.89365-14.241121-37.694771 8.975331-46.668945-11.975593-78.979905-16.757731l-55.643118-51.449925s-91.543286-105.905898-80.774509-123.854247c10.769934-17.949505 10.769934-66.415367 12.565695-77.182987 1.794603-10.769934-14.326744-78.981062-13.446219-87.954079 0.880524-8.975331-13.478617-43.080895-13.478617-43.080895s34.105564-71.79802 39.490531-71.79802c5.38381 0 25.129076 61.028086 44.873184 62.823846 19.744108 1.793446 73.593781-1.794603 81.671232-10.769935 8.077451-8.974174 15.257021-19.742951 24.231195-19.742951 8.975331 0 8.975331-5.384967 25.130233 1.793446 16.154902 7.180728 34.105564 17.949505 41.285135 28.718283 7.179571 10.771092-5.384967 32.309803 32.308646 32.309803s37.693614-8.974174 43.079738 16.156059c5.384967 25.130233 11.766165 80.773351-3.988393 84.363715M1026.685541 24.874522C1010.956438 8.585401 990.251968 0.885153 967.141966 0.072895c-17.615114-0.619028-37.126653 2.724881-58.909505 9.542291-31.431593 9.837342-68.628827 27.326337-110.545717 51.703322a530.96772 530.96772 0 0 1 54.821604 41.229596c6.859064 5.889446 12.005677 11.517397 15.624967 16.949803 27.085668-14.503774 50.904949-25.016841 70.649058-31.196709 11.61459-3.635489 21.252918-5.57704 28.440587-6.005153-0.676881 7.169157-2.95398 16.733433-6.992126 28.214961-9.095666 25.855711-26.050097 58.600569-49.985085 96.371706C819.639684 101.585428 685.408904 34.900466 535.597125 34.900466c-272.864181 0-494.065537 221.200199-494.065536 494.065536 0 142.596339 60.418314 271.073049 157.04226 361.253316-34.317306 19.506911-64.112814 33.29562-87.962179 40.759828-11.61459 3.636646-21.252918 5.57704-28.440588 6.003995 0.676881-7.169157 2.95398-16.733433 6.993284-28.213803 5.270418-14.987426 13.180095-32.285505 23.5601-51.535548a537.177672 537.177672 0 0 1-53.727024-77.269767c-21.665989 35.732393-37.656588 67.817727-47.404836 95.52705C4.018477 897.022843-0.003471 916.407105 0 934.032633c0.004628 23.125044 6.977085 44.084068 22.708502 60.373188 15.729103 16.287964 36.432416 23.989369 59.544732 24.801628 17.613957 0.619028 37.125496-2.726038 58.907191-9.542292 38.831006-12.153781 86.463783-35.98579 140.919756-70.054328 108.659706-67.980872 240.285939-174.09967 369.349279-298.734933C780.4928 516.239476 891.141496 388.397993 962.872407 282.176217c35.948764-53.234115 61.427272-100.006038 74.92903-138.389261 7.574129-21.529455 11.596077-40.913718 11.592606-58.538088-0.004628-23.126201-6.978242-44.085225-22.708502-60.375503" fill="#1296db" p-id="21803"></path></svg>