<?xml version="1.0" standalone="no"?><!DOCTYPE svg PUBLIC "-//W3C//DTD SVG 1.1//EN" "http://www.w3.org/Graphics/SVG/1.1/DTD/svg11.dtd"><svg t="1541646119701" class="icon" style="" viewBox="0 0 1034 1024" version="1.1" xmlns="http://www.w3.org/2000/svg" p-id="10235" xmlns:xlink="http://www.w3.org/1999/xlink" width="267.587890625" height="265"><defs><style type="text/css"></style></defs><path d="M1015.968627 635.482353h-2.007843l-129.505882-200.784314c-11.043137-17.066667-6.023529-30.117647-2.007843-36.141176L1019.984314 190.745098v-2.007843c6.023529-20.078431 4.015686-37.145098-6.02353-48.188235-15.058824-18.070588-41.160784-16.062745-42.164706-16.062745H682.666667V82.321569l-3.011765 3.011764c-5.019608-20.078431-16.062745-37.145098-31.121569-51.2C612.392157 0 561.192157 0 552.156863 0H98.384314v2.007843C83.32549 7.027451 72.282353 21.082353 72.282353 36.141176s11.043137 30.117647 26.101961 34.133334v2.007843H554.164706c4.015686 0 27.105882 1.003922 40.156863 13.05098 7.027451 6.023529 10.039216 15.058824 10.039215 29.113726v30.117647c0 1.003922 1.003922 24.094118 15.058824 38.149019 14.054902 16.062745 40.156863 15.058824 42.164706 15.058824h245.960784s4.015686 0 6.023529 3.011765c1.003922 2.007843 2.007843 6.023529 1.003922 10.039215L811.168627 367.435294c-12.047059 17.066667-27.105882 59.231373 2.007844 97.380392l99.388235 153.6c1.003922 6.023529 1.003922 10.039216-1.003922 12.047059-2.007843 2.007843-6.023529 3.011765-6.023529 3.011765H599.341176c-8.031373-1.003922-18.070588-6.023529-18.070588-17.066667v-2.007843-3.011765l2.007843-19.07451-4.015686 2.007844c-3.011765-18.070588-11.043137-38.14902-28.109804-56.219608-19.07451-20.078431-46.180392-32.12549-78.305882-33.129412H242.94902c-52.203922 3.011765-73.286275 46.180392-76.29804 68.266667v352.37647c-5.019608 9.035294-17.066667 25.098039-46.180392 25.098039-28.109804 0-37.145098-19.07451-40.156863-28.109803V161.631373 150.588235h-4.015686c-5.019608-15.058824-20.078431-25.098039-37.145098-25.098039S8.031373 135.529412 3.011765 150.588235H1.003922v782.054902C6.023529 963.764706 38.14902 1024 118.462745 1024c77.301961 0 113.443137-53.207843 122.478431-81.317647l2.007844-5.019608V594.321569c2.007843-11.043137 10.039216-16.062745 23.090196-16.062745h202.792157c11.043137 1.003922 19.07451 4.015686 24.094117 9.035294 9.035294 10.039216 11.043137 28.109804 11.043137 35.137255v21.082352c0 1.003922-1.003922 26.101961 16.062746 44.17255 12.047059 13.05098 30.117647 20.078431 54.211764 20.078431h401.568628c9.035294 0 26.101961-3.011765 37.145098-16.062745 9.035294-12.047059 11.043137-28.109804 6.023529-48.188236l-3.011765-8.031372z" p-id="10236"></path><path d="M359.403922 443.733333c20.078431 0 36.141176-9.035294 45.17647-26.10196l113.443137-208.815687c3.011765-5.019608 4.015686-9.035294 4.015687-14.054902 0-7.027451-3.011765-18.070588-17.066667-26.10196-9.035294-5.019608-21.082353-8.031373-33.129412-8.031373-21.082353 0-36.141176 7.027451-44.172549 22.086274l-69.270588 126.494118-68.266667-126.494118c-8.031373-14.054902-23.090196-22.086275-44.172549-22.086274-12.047059 0-23.090196 3.011765-33.129411 8.031373-14.054902 8.031373-17.066667 18.070588-17.066667 26.10196 0 4.015686 1.003922 9.035294 3.011765 13.050981l114.447058 208.815686c10.039216 18.070588 26.101961 27.105882 46.180393 27.105882z" p-id="10237"></path></svg>