<?xml version="1.0" standalone="no"?><!DOCTYPE svg PUBLIC "-//W3C//DTD SVG 1.1//EN" "http://www.w3.org/Graphics/SVG/1.1/DTD/svg11.dtd"><svg t="1541645718911" class="icon" style="" viewBox="0 0 1024 1024" version="1.1" xmlns="http://www.w3.org/2000/svg" p-id="3155" xmlns:xlink="http://www.w3.org/1999/xlink" width="265" height="265"><defs><style type="text/css"></style></defs><path d="M512 1024C229.234 1024 0 794.766 0 512 0 229.234 229.234 0 512 0c282.766 0 512 229.234 512 512 0 282.766-229.234 512-512 512z m0-967.111C260.636 56.889 56.889 260.636 56.889 512c0 251.364 203.747 455.111 455.111 455.111 251.364 0 455.111-203.747 455.111-455.111 0-251.364-203.747-455.111-455.111-455.111z m68.494 398.222h130.617c15.701 0 28.445 12.743 28.445 28.445 0 15.7-12.744 28.444-28.445 28.444H540.444v85.333h170.667c15.701 0 28.445 12.743 28.445 28.445 0 15.701-12.744 28.444-28.445 28.444H540.444V768c0 15.701-12.743 28.444-28.444 28.444-15.701 0-28.444-12.743-28.444-28.444V654.222H312.889c-15.701 0-28.445-12.743-28.445-28.444 0-15.702 12.744-28.445 28.445-28.445h170.667V512H312.889c-15.701 0-28.445-12.743-28.445-28.444 0-15.702 12.744-28.445 28.445-28.445h130.588l-178.66-178.66c-11.32-11.32-11.32-29.667 0-40.988 11.322-11.32 29.668-11.32 40.99 0l206.99 206.99 206.335-207.132c11.094-11.122 29.128-11.122 40.22 0 11.123 11.093 11.123 29.099 0 40.22l-178.858 179.57z" p-id="3156"></path></svg>