<?xml version="1.0" standalone="no"?><!DOCTYPE svg PUBLIC "-//W3C//DTD SVG 1.1//EN" "http://www.w3.org/Graphics/SVG/1.1/DTD/svg11.dtd"><svg t="1541642310574" class="icon" style="" viewBox="0 0 1024 1024" version="1.1" xmlns="http://www.w3.org/2000/svg" p-id="3486" xmlns:xlink="http://www.w3.org/1999/xlink" width="265" height="265"><defs><style type="text/css"></style></defs><path d="M650.54208 501.56544h224.25088c54.0416 0 98.00704-43.96544 98.00704-98.00704V179.30752c0-54.05184-43.96544-98.02752-98.00704-98.02752h-224.25088c-54.05184 0-98.02752 43.97568-98.02752 98.02752V403.5584c0 54.0416 43.97568 98.00704 98.02752 98.00704z m-44.10368-322.25792c0-24.32 19.78368-44.10368 44.09856-44.10368h224.25088c24.30464 0 44.07808 19.78368 44.07808 44.10368V403.5584c0 24.30976-19.77344 44.0832-44.07808 44.0832h-224.25088c-24.31488 0-44.09856-19.77344-44.09856-44.0832V179.30752z m-211.98848 393.68704H147.43552c-47.7696 0-86.63552 38.87616-86.63552 86.656v246.9888c0 47.77472 38.86592 86.64064 86.63552 86.64064h247.0144c47.7696 0 86.63552-38.86592 86.64064-86.64064v-246.9888c0-47.77984-38.87104-86.656-86.64064-86.656z m32.71168 333.6448a32.74752 32.74752 0 0 1-32.71168 32.71168H147.43552a32.74752 32.74752 0 0 1-32.71168-32.71168v-246.9888c0-18.04288 14.67392-32.73216 32.71168-32.73216h247.0144c18.03776 0 32.71168 14.68416 32.71168 32.73216v246.9888z m458.99776-333.6448h-247.00928c-47.7696 0-86.63552 38.87616-86.63552 86.656v246.9888c0 47.77472 38.86592 86.64064 86.63552 86.64064h247.00928c47.77472 0 86.64064-38.86592 86.64064-86.64064v-246.9888c0-47.77984-38.86592-86.656-86.64064-86.656z m32.71168 333.6448a32.75264 32.75264 0 0 1-32.71168 32.71168h-247.00928a32.75264 32.75264 0 0 1-32.71168-32.71168v-246.9888c0-18.04288 14.67392-32.73216 32.71168-32.73216h247.00928c18.03264 0 32.71168 14.68416 32.71168 32.73216v246.9888zM140.75392 488.76544h260.38784c39.83872 0 72.2688-32.42496 72.2688-72.2688V156.11392c0-39.84384-32.43008-72.2688-72.2688-72.2688h-176.9472c-85.86752 0-155.70944 69.84192-155.70944 155.70944v176.9472c-0.00512 39.83872 32.42496 72.26368 72.2688 72.26368z" fill="" p-id="3487"></path></svg>