<?xml version="1.0" standalone="no"?><!DOCTYPE svg PUBLIC "-//W3C//DTD SVG 1.1//EN" "http://www.w3.org/Graphics/SVG/1.1/DTD/svg11.dtd"><svg t="1541644619806" class="icon" style="" viewBox="0 0 1024 1024" version="1.1" xmlns="http://www.w3.org/2000/svg" p-id="2163" xmlns:xlink="http://www.w3.org/1999/xlink" width="265" height="265"><defs><style type="text/css"></style></defs><path d="M742.272 1023.6928C593.8688 1023.6928 473.5744 903.4496 473.5744 755.1232 473.5744 606.7968 593.8688 486.5536 742.272 486.5536 890.6752 486.5536 1010.9696 606.7968 1010.9696 755.1232 1010.9696 903.4496 890.6752 1023.6928 742.272 1023.6928ZM742.4 537.6C622.2336 537.6 524.8 635.0336 524.8 755.2 524.8 875.3664 622.2336 972.8 742.4 972.8 862.5664 972.8 960 875.3664 960 755.2 960 635.0336 862.5664 537.6 742.4 537.6ZM851.6352 843.5712L719.3088 791.808C719.2576 791.7824 719.232 791.7312 719.1552 791.7056 717.7472 791.0912 716.6464 790.0416 715.3664 789.1968 713.984 788.3008 712.4224 787.6096 711.2704 786.4576 708.1984 783.3856 706.3552 779.3664 705.2288 775.04 704.64 772.9408 704.0512 770.8928 704 768.6912L704 639.0016C704 625.408 715.008 614.4 728.6016 614.4L730.5984 614.4C744.192 614.4 755.2 625.408 755.2 639.0016L755.2 752.1536 867.6864 796.16C879.8464 800.9216 886.144 815.3856 881.7152 828.4928 877.2608 841.5744 863.7952 848.3328 851.6352 843.5712ZM780.8 178.944C780.8 150.656 757.888 127.744 729.6 127.744L678.4 127.744 678.4 76.8 729.6 76.8C786.1504 76.8 832 122.6496 832 179.2L832 448.1536C815.4368 443.3408 798.336 439.8336 780.8 437.7088L780.8 178.944ZM628.1984 204.8L626.2016 204.8C612.608 204.8 601.6 193.792 601.6 180.1984L601.6 24.6016C601.6 11.008 612.608 0 626.2016 0L628.1984 0C641.792 0 652.8 11.008 652.8 24.6016L652.8 180.1984C652.8 193.792 641.792 204.8 628.1984 204.8ZM268.8 76.8L576 76.8 576 127.744 268.8 127.744 268.8 76.8ZM218.5984 204.8L216.6016 204.8C203.008 204.8 192 193.792 192 180.1984L192 24.6016C192 11.008 203.008 0 216.6016 0L218.5984 0C232.192 0 243.2 11.008 243.2 24.6016L243.2 180.1984C243.2 193.792 232.192 204.8 218.5984 204.8ZM217.6 357.0176L217.6 359.7824C217.6 373.1712 206.7712 384 193.3824 384L190.6176 384C177.2288 384 166.4 373.1712 166.4 359.7824L166.4 357.0176C166.4 343.6288 177.2288 332.8 190.6176 332.8L193.3824 332.8C206.7712 332.8 217.6 343.6288 217.6 357.0176ZM193.3824 537.6L190.6176 537.6C177.2288 537.6 166.4 526.7712 166.4 513.3824L166.4 510.6176C166.4 497.2288 177.2288 486.4 190.6176 486.4L193.3824 486.4C206.7712 486.4 217.6 497.2288 217.6 510.6176L217.6 513.3824C217.6 526.7712 206.7712 537.6 193.3824 537.6ZM217.6 666.9824C217.6 680.3712 206.7712 691.2 193.3824 691.2L190.6176 691.2C177.2288 691.2 166.4 680.3712 166.4 666.9824L166.4 664.2176C166.4 650.8288 177.2288 640 190.6176 640L193.3824 640C206.7712 640 217.6 650.8288 217.6 664.2176L217.6 666.9824ZM293.4016 640L444.1088 640C437.7344 656.4864 432.4096 673.5104 428.8256 691.2L293.4016 691.2C279.808 691.2 268.8 680.192 268.8 666.5984L268.8 664.6272C268.8 651.008 279.808 640 293.4016 640ZM268.8 360.0128L268.8 356.8128C268.8 343.552 279.552 332.8 292.7872 332.8L680.0128 332.8C693.248 332.8 704 343.552 704 356.8128L704 360.0128C704 373.248 693.248 384 680.0128 384L292.7872 384C279.552 384 268.8 373.248 268.8 360.0128ZM293.4016 537.6C279.808 537.6 268.8 526.592 268.8 512.9984L268.8 511.0016C268.8 497.408 279.808 486.4 293.4016 486.4L569.1648 486.4C546.7392 500.8896 526.336 518.1184 508.2368 537.6L293.4016 537.6ZM64 178.944L64 844.544C64 872.832 86.912 895.744 115.2 895.744L455.2448 895.744C464.1792 913.9456 474.752 931.1488 486.8352 947.2L115.2 947.2C58.6496 947.2 12.8 901.3504 12.8 844.8L12.8 179.2C12.8 122.6496 58.6496 76.8 115.2 76.8L166.4 76.8 166.4 127.744 115.2 127.744C86.912 127.744 64 150.656 64 178.944Z" p-id="2164"></path></svg>