<?xml version="1.0" standalone="no"?><!DOCTYPE svg PUBLIC "-//W3C//DTD SVG 1.1//EN" "http://www.w3.org/Graphics/SVG/1.1/DTD/svg11.dtd"><svg t="1539423489968" class="icon" style="" viewBox="0 0 1024 1024" version="1.1" xmlns="http://www.w3.org/2000/svg" p-id="3599" xmlns:xlink="http://www.w3.org/1999/xlink" width="270" height="270"><defs><style type="text/css"></style></defs><path d="M872.352 576.798c-41.025 0-83.537 25.786-106.156 79.118-23.433-54.892-65.365-80.784-105.724-80.797-53.904 0-105.029 46.21-105.61 131.3-0.601 86.011 205.438 217.099 211.645 238.391 5.648-22.119 211.807-153.861 211.206-239.286-0.58-84.541-51.692-128.727-105.362-128.727zM467.841 889.012c-96.050 0-388.219 0-388.219-84.582 0-57.798 111.121-143.689 271.269-174.646 26.22-6.093 47.377-26.333 55.18-52.758 7.993-26.986 0.813-55.983-19.261-78.077-0.619-0.826-1.341-1.653-2.113-2.427-46.971-45.478-77.418-123.248-77.418-198.245 0-109.409 66.058-185.793 160.561-185.793 94.544 0 160.566 76.384 160.566 185.793 0 75.25-30.613 153.287-78.558 199.273-21.051 22.146-28.798 51.811-20.639 79.383 2.533 8.638 6.612 16.532 11.754 23.585 8.998-7.239 18.819-12.799 29.165-16.586-4.041-4.654-7.193-10.201-9.026-16.4-4.752-16.252-0.107-33.385 12.333-46.491 53.626-51.467 88.251-138.889 88.251-222.766 0-128.969-79.729-219.086-193.844-219.086-114.115 0-193.807 90.117-193.807 219.086 0 82.583 33.606 168.726 85.677 220.325 0.359 0.518 0.772 0.988 1.241 1.453 13.265 13.732 18.066 31.065 13.212 47.531-4.434 14.973-16.252 26.371-30.192 29.626-164.121 31.745-297.69 124.689-297.69 207.22 0 103.582 202.619 117.875 421.557 117.875 66.784 0 132.007-1.346 190.466-6.133-11.605-9.505-24.185-19.866-37.11-30.866-61.238 3.706-119.503 3.706-153.355 3.706z" p-id="3600"></path></svg>