<?xml version="1.0" standalone="no"?><!DOCTYPE svg PUBLIC "-//W3C//DTD SVG 1.1//EN" "http://www.w3.org/Graphics/SVG/1.1/DTD/svg11.dtd"><svg t="1539422791964" class="icon" style="" viewBox="0 0 1228 1024" version="1.1" xmlns="http://www.w3.org/2000/svg" p-id="4723" xmlns:xlink="http://www.w3.org/1999/xlink" width="239.84375" height="200"><defs><style type="text/css"></style></defs><path d="M628.69504 516.3008c75.4688-49.29536 125.41952-134.59456 125.41952-231.424C754.11456 132.608 630.12864 8.6016 477.88032 8.6016 325.632 8.62208 201.64608 132.608 201.64608 284.8768c0 96.6656 49.93024 181.9648 125.41952 231.424a475.66848 475.66848 0 0 0-186.61376 115.48672A473.9072 473.9072 0 0 0 0.7168 969.05216a35.2256 35.2256 0 0 0 35.328 35.328 35.2256 35.2256 0 0 0 35.34848-35.328c0-224.0512 182.272-406.3232 406.3232-406.3232s406.3232 182.272 406.3232 406.3232a35.2256 35.2256 0 0 0 35.34848 35.328 35.2256 35.2256 0 0 0 35.328-35.328 473.9072 473.9072 0 0 0-139.73504-337.26464 474.07104 474.07104 0 0 0-186.28608-115.48672zM272.30208 285.04064c0-113.39776 92.18048-205.57824 205.57824-205.57824 113.37728 0 205.57824 92.18048 205.57824 205.57824 0 113.37728-92.20096 205.55776-205.57824 205.55776-113.23392 0-205.57824-92.18048-205.57824-205.55776z m873.0624 370.176a476.30336 476.30336 0 0 0-221.65504-176.3328 354.5088 354.5088 0 0 0 60.39552-201.23648 356.43392 356.43392 0 0 0-92.01664-236.58496 35.328 35.328 0 0 0-49.9712-2.39616 35.328 35.328 0 0 0-2.39616 49.95072c98.14016 108.2368 98.77504 272.384 1.4336 381.7472-2.2528 2.58048-4.15744 5.46816-5.44768 8.35584a33.71008 33.71008 0 0 0-4.01408 9.15456 35.4304 35.4304 0 0 0 24.8832 43.35616c194.17088 52.03968 319.61088 234.8032 298.57792 434.2784a35.34848 35.34848 0 0 0 31.47776 38.87104 35.4304 35.4304 0 0 0 38.87104-31.47776 476.79488 476.79488 0 0 0-80.15872-317.68576z" p-id="4724"></path></svg>