<?xml version="1.0" standalone="no"?><!DOCTYPE svg PUBLIC "-//W3C//DTD SVG 1.1//EN" "http://www.w3.org/Graphics/SVG/1.1/DTD/svg11.dtd"><svg t="1539424122481" class="icon" style="" viewBox="0 0 1417 1024" version="1.1" xmlns="http://www.w3.org/2000/svg" p-id="11359" xmlns:xlink="http://www.w3.org/1999/xlink" width="366.7041015625" height="265"><defs><style type="text/css"></style></defs><path d="M1170.278259 0.131238H247.14802L0.000044 325.10353l708.686848 698.89647 708.713095-698.89647L1170.278259 0.131238zM507.236093 556.135442h-69.976264l-140.188758-349.881322h74.648348l99.373645 256.360906L572.330293 206.25412h74.648348l-139.742548 349.881322z m267.568657 0h-69.740036V206.044139h69.740036v350.091303z m222.97388-144.598365h-82.81137v144.624613h-69.976265V206.25412H997.542401c81.630226 0 122.471586 33.597006 122.471587 100.764771 0 69.68754-40.762618 104.518186-122.235358 104.518186z" p-id="11360"></path><path d="M1013.632218 271.79453h-98.664958v74.412119h97.956271c28.137493-0.472458 42.599954-13.281316 43.387383-38.479071-0.761182-22.992951-14.987414-34.988132-42.678696-35.933048z" p-id="11361"></path></svg>