<?xml version="1.0" standalone="no"?><!DOCTYPE svg PUBLIC "-//W3C//DTD SVG 1.1//EN" "http://www.w3.org/Graphics/SVG/1.1/DTD/svg11.dtd"><svg t="1541643528587" class="icon" style="" viewBox="0 0 1024 1024" version="1.1" xmlns="http://www.w3.org/2000/svg" p-id="2448" xmlns:xlink="http://www.w3.org/1999/xlink" width="265" height="265"><defs><style type="text/css"></style></defs><path d="M126.741097 462.515336m-126.373106 0a126.373106 126.373106 0 1 0 252.746213 0 126.373106 126.373106 0 1 0-252.746213 0Z" p-id="2449"></path><path d="M331.905533 422.096407c132.001058-198.001587 140.698802-206.699332 243.025204-366.328518 38.884033-38.372401 107.954354 4.604688 83.396017 62.419105 0.511632 0-59.860945 89.535602-180.606099 268.095173h143.256963c82.372753-33.767713 134.559218-23.02344 157.071027 32.744448 33.767713 83.396017 138.652274 312.095525 235.862356 540.283401 18.418752 56.791153-49.116673 82.884385-77.256434 47.581777-22.000176-46.558513-89.02397-183.164259-200.559747-408.793975h-26.093233c-85.442545 167.303667-153.489603 301.351253-204.141171 402.142759-21.488544 42.977089-125.349842 28.651392-85.954178-51.163201 4.093056-12.7908 63.442369-129.95453 178.559571-350.979558H407.62707c-2.55816 166.280403-3.581424 295.723301-3.581424 388.840327-29.674657 42.465457-90.047234 35.302609-102.838034-13.302432-0.511632-32.232817 0-219.490132-6.139584-444.608216-1.534896-46.558513 5.627952-70.093585 36.837505-106.93109z" p-id="2450"></path></svg>