<?xml version="1.0" standalone="no"?><!DOCTYPE svg PUBLIC "-//W3C//DTD SVG 1.1//EN" "http://www.w3.org/Graphics/SVG/1.1/DTD/svg11.dtd"><svg t="1541646191251" class="icon" style="" viewBox="0 0 1024 1024" version="1.1" xmlns="http://www.w3.org/2000/svg" p-id="11051" xmlns:xlink="http://www.w3.org/1999/xlink" width="265" height="265"><defs><style type="text/css"></style></defs><path d="M391.239 591.898c-77.227 0-140.115-62.794-140.115-139.928 0-11.060 8.997-19.963 20.057-19.963s20.057 8.997 20.057 19.963c0 55.109 44.893 100.002 100.096 100.002s100.096-44.893 100.096-100.002c0-11.060 8.997-19.963 20.057-19.963 11.060 0 20.057 8.997 20.057 19.963-0.188 77.134-62.981 139.928-140.303 139.928z" fill="" p-id="11052"></path><path d="M991.719 871.753c-7.873-142.645-98.69-263.173-225.122-313.971 87.068-47.517 146.113-139.74 146.113-245.834 0-154.549-125.495-279.95-280.23-279.95-95.409 0-179.573 47.705-230.183 120.527-3.655-0.188-7.311-0.563-10.966-0.563-154.736 0-280.23 125.307-280.23 279.95 0 106.094 59.046 198.317 146.113 245.834-126.525 50.797-217.342 171.324-225.216 313.971h718.57c-2.343-42.363-12.184-82.757-27.929-119.965h269.077zM946.638 831.828h-243.96c-40.019-69.167-102.345-123.901-177.323-154.080-2.905 1.594-5.811 3.093-8.716 4.499 42.082-21.087 78.165-52.579 104.875-90.911 3.655 0.188 7.311 0.563 10.966 0.563 26.43 0 52.11-3.655 76.384-10.497 120.152 29.523 214.343 126.9 237.774 250.427zM632.48 72.019c132.43 0 240.211 107.593 240.211 239.93 0 128.212-101.314 232.994-228.215 239.367 17.152-36.271 26.993-76.571 26.993-119.403 0-134.961-95.597-247.615-222.872-274.044 44.049-52.391 110.124-85.85 183.884-85.85zM151.122 431.914c0-128.213 101.314-232.994 228.215-239.367 4.030-0.188 7.967-0.563 11.996-0.563 10.872 0 21.556 0.938 32.053 2.437 117.34 15.745 208.158 116.123 208.158 237.493 0 42.738-11.34 82.757-31.022 117.528-7.311 12.934-15.745 25.211-25.211 36.458-44.049 52.391-110.124 85.85-183.884 85.85-132.618 0.094-240.305-107.499-240.305-239.836zM77.081 951.793c23.431-123.526 117.622-220.904 237.774-250.427 24.274 6.842 49.86 10.497 76.384 10.497 26.43 0 52.016-3.655 76.29-10.497 77.415 19.026 143.958 66.262 187.82 130.462 8.716 12.652 16.402 26.055 23.243 40.019 12.184 25.024 21.368 51.735 26.711 79.945h-628.223z" fill="" p-id="11053"></path></svg>