<?xml version="1.0" standalone="no"?><!DOCTYPE svg PUBLIC "-//W3C//DTD SVG 1.1//EN" "http://www.w3.org/Graphics/SVG/1.1/DTD/svg11.dtd"><svg t="1541642303168" class="icon" style="" viewBox="0 0 1024 1024" version="1.1" xmlns="http://www.w3.org/2000/svg" p-id="3361" xmlns:xlink="http://www.w3.org/1999/xlink" width="265" height="265"><defs><style type="text/css"></style></defs><path d="M103.23979719 177.91039437A87.61660313 87.61660313 0 0 1 190.85640031 90.29379219h58.29377719c0.11729156 0 0.11729156 0 0.11729156-0.11729156V32.11730563c0-0.11729156 0-0.11729156-0.11729156-0.11729063H190.97369187A146.17428563 146.17428563 0 0 0 44.82872938 178.1449775v58.17648562c0 0.11729156 0 0.11729156 0.11729062 0.11729157h58.17648656c0.11729156 0 0.11729156 0 0.11729063-0.11729157zM833.02628 32.000015h-58.17648656c-0.11729156 0-0.11729156 0-0.11729063 0.11729062v58.17648657c0 0.11729156 0 0.11729156 0.11729063 0.11729062h58.29377719a87.63126375 87.63126375 0 0 1 87.61660312 87.61660313v58.29377718c0 0.11729156 0 0.11729156 0.11729156 0.11729157h58.17648563c0.11729156 0 0.11729156 0 0.11729062-0.11729157V178.1449775A146.08631719 146.08631719 0 0 0 833.02628 32.000015zM803.93803625 992h-98.01154406l-75.03711094-75.03711094a435.34132969 435.34132969 0 0 1-118.75744312 16.62604219 432.24777094 432.24777094 0 0 1-118.75744313-16.59671906l-74.99312625 75.00778781h-108.65573062a10.10171344 10.10171344 0 0 1-9.38330344-6.34839187l-10.39494188-25.99468501L201.70584594 948.33831312l74.77320468-84.22981687a434.63758125 434.63758125 0 0 1-198.89672531-365.06917781 431.57334656 431.57334656 0 0 1 127.21707844-307.14193594 431.558685 431.558685 0 0 1 307.20058219-127.26106313A431.58800812 431.58800812 0 0 1 819.20056719 191.80941406a431.57334656 431.57334656 0 0 1 127.21707844 307.24456594 434.63758125 434.63758125 0 0 1-198.67680375 365.06917781l81.97195875 92.27893219v9.74983969a25.86273188 25.86273188 0 0 1-25.77476438 25.84807031z m-76.75249594-51.31494469H747.11040031l-64.65682969-72.85255968v-25.1883075l13.32722438-7.33070625a383.36662125 383.36662125 0 0 0 199.39521281-336.288825c0-211.24163531-171.86108062-383.10271594-383.102715-383.10271594s-383.10271594 171.86108062-383.10271594 383.10271593a383.42526656 383.42526656 0 0 0 193.82387719 333.16594407l20.39402438 11.72913s-0.73307062 15.39448312-1.83267657 22.358655l-64.27563281 74.45065406H297.00502906l78.35058938-78.35059031h14.6614125l3.98790468 1.26088125a380.74222781 380.74222781 0 0 0 118.02437251 18.67864031 385.59515625 385.59515625 0 0 0 118.12700249-18.7079625l3.82662938-1.23155906h14.6614125l7.62393469 7.52130468zM297.00502906 841.00211l-0.07330781 0.08796844z" fill="" p-id="3362"></path><path d="M512.11727656 548.78549188a29.32282594 29.32282594 0 0 1-29.322825-29.322825V286.87401406c0-17.24182125 14.19224719-31.19948625 31.31677782-29.90928187a29.10290438 29.10290438 0 0 1 26.97699937 29.08824281v204.32144812c0 0.11729156 0 0.11729156 0.11729063 0.11729157h174.29487562c17.24182125 0 31.19948625 14.19224719 29.90928188 31.31677781a29.10290438 29.10290438 0 0 1-29.08824282 26.97699937z" fill="" p-id="3363"></path></svg>